# xmcd
#
# Track frame offsets:
#	150
#	14537
#	37537
#	63890
#	79136
#	89706
#	109624
#	142719
#	160880
#	174108
#	197329
#	208799
#	225567
#
# Disc length: 3180 seconds
# Revision: 0
# Processed by: cddbd v1.5.2PL0 Copyright (c) Steve Scherf et al.
# Submitted via: dBpowerAMP V12.0
#
DISCID=940c6a0d
DTITLE=Betty Fox - Slow Burn
DYEAR=2015
DGENRE=Blues
TTITLE0=Think About It
TTITLE1=Sweet Memories
TTITLE2=Slow Burn
TTITLE3=Solid Ground
TTITLE4=Please Come Home
TTITLE5=Our Love Is True
TTITLE6=Remember Me
TTITLE7=Take A Walk With Me
TTITLE8=Let The Light Shine
TTITLE9=Baby Please
TTITLE10=Who's Holdin'
TTITLE11=Goodbye
TTITLE12=Angel Flyin' Too Close To The Ground
EXTD=
EXTT0=
EXTT1=
EXTT2=
EXTT3=
EXTT4=
EXTT5=
EXTT6=
EXTT7=
EXTT8=
EXTT9=
EXTT10=
EXTT11=
EXTT12=
PLAYORDER=
